<?xml version="1.0" encoding="UTF-8"?>
<svg id="Capa_2" xmlns="http://www.w3.org/2000/svg" viewBox="0 0 633.71 150.02">
  <defs>
    <style>
      .cls-1 {
        fill: #f4db09;
      }
    </style>
  </defs>
  <g id="Capa_1-2" data-name="Capa_1">
    <path d="M0,3.02h37.71c10.2,0,18.04.8,23.52,2.4,5.48,1.6,9.6,3.91,12.36,6.94,2.76,3.02,4.62,6.69,5.6,10.98.98,4.3,1.47,10.95,1.47,19.96v12.54c0,9.19-.95,15.89-2.85,20.1-1.9,4.21-5.38,7.44-10.45,9.69-5.07,2.25-11.69,3.38-19.88,3.38h-10.05v57.98H0V3.02ZM37.44,27.66v36.64c1.07.06,1.99.09,2.76.09,3.44,0,5.82-.84,7.16-2.53,1.33-1.69,2-5.2,2-10.54v-11.83c0-4.92-.77-8.12-2.31-9.6-1.54-1.48-4.74-2.22-9.6-2.22Z"/>
    <path d="M91.42,3.02h26.5c17.67,0,29.63.68,35.88,2.05,6.25,1.36,11.35,4.85,15.3,10.45,3.94,5.6,5.91,14.54,5.91,26.81,0,11.21-1.39,18.73-4.18,22.59-2.79,3.85-8.27,6.17-16.45,6.94,7.41,1.84,12.39,4.3,14.94,7.38,2.55,3.08,4.14,5.91,4.76,8.49.62,2.58.93,9.68.93,21.3v37.97h-34.77v-47.84c0-7.71-.61-12.48-1.82-14.32-1.22-1.84-4.4-2.76-9.56-2.76v64.92h-37.44V3.02ZM128.86,27.66v32.01c4.21,0,7.16-.58,8.85-1.73,1.69-1.16,2.53-4.91,2.53-11.25v-7.92c0-4.56-.82-7.56-2.45-8.98-1.63-1.42-4.61-2.13-8.94-2.13Z"/>
    <path d="M275.06,87.33c0,14.47-.34,24.71-1.02,30.73-.68,6.02-2.82,11.52-6.4,16.5-3.59,4.98-8.43,8.8-14.54,11.47-6.11,2.67-13.22,4-21.34,4s-14.63-1.26-20.77-3.78c-6.14-2.52-11.07-6.3-14.81-11.34-3.73-5.04-5.96-10.52-6.67-16.45-.71-5.93-1.07-16.3-1.07-31.12v-24.63c0-14.46.34-24.71,1.02-30.72.68-6.02,2.81-11.52,6.4-16.5,3.59-4.98,8.43-8.8,14.54-11.47,6.11-2.67,13.22-4,21.34-4s14.63,1.26,20.77,3.78c6.14,2.52,11.07,6.3,14.81,11.34,3.73,5.04,5.96,10.52,6.67,16.45.71,5.93,1.07,16.3,1.07,31.12v24.63ZM237.62,40.02c0-6.7-.37-10.98-1.11-12.85-.74-1.87-2.27-2.8-4.58-2.8-1.96,0-3.45.76-4.49,2.27-1.04,1.51-1.56,5.97-1.56,13.38v67.23c0,8.36.34,13.52,1.02,15.47.68,1.96,2.27,2.93,4.76,2.93s4.18-1.13,4.89-3.38c.71-2.25,1.07-7.62,1.07-16.1V40.02Z"/>
    <path d="M404.54,3.02v143.98h-32.72l-.04-97.2-13.03,97.2h-23.21l-13.74-94.98-.04,94.98h-32.73V3.02h48.44c1.44,8.66,2.92,18.86,4.44,30.61l5.32,36.62,8.6-67.23h48.71Z"/>
    <polygon points="505.69 147 467.43 147 465.42 121.12 463.44 95.6 458.74 35.13 453.9 95.6 449.78 147 411.07 147 430.17 3.02 484.29 3.02 505.69 147"/>
    <path d="M592.49,3.02l-13.16,63.67,19.83,80.3h-34.68c-4.15-14.35-7.94-31.84-11.38-52.47-.94,9.14-2.26,18.8-3.95,28.99l-3.52,23.48h-36.46l13.61-80.3-13.61-63.67h36.19c.66,3.97,1.96,10.57,3.9,19.82,1.57,7.05,2.85,13.54,3.83,19.48l8-39.31h31.39Z"/>
    <path class="cls-1" d="M633.71,117.65v29.35h-27.12v-29.35h27.12Z"/>
  </g>
</svg>